HIERARCHY
ROOT Hips
{
  OFFSET 0 0 0
  CHANNELS 6 Xposition Yposition Zposition Zrotation Yrotation Xrotation
  JOINT LeftThigh
  {
    OFFSET 8.409438 0 -5.917753
    CHANNELS 3 Zrotation Yrotation Xrotation
    JOINT LeftLeg
    {
      OFFSET 0 0 -42.358652
      CHANNELS 3 Zrotation Yrotation Xrotation
      JOINT LeftFoot
      {
        OFFSET 0 0 -39.357303
        CHANNELS 3 Zrotation Yrotation Xrotation
      }
    }
  }
  JOINT RightThigh
  {
    OFFSET -8.409438 0 -5.917753
    CHANNELS 3 Zrotation Yrotation Xrotation
    JOINT RightLeg
    {
      OFFSET 0 0 -42.358652
      CHANNELS 3 Zrotation Yrotation Xrotation
      JOINT RightFoot
      {
        OFFSET 0 0 -39.357303
        CHANNELS 3 Zrotation Yrotation Xrotation
      }
    }
  }
  JOINT SpineLow
  {
    OFFSET 0 0 4.719101
    CHANNELS 3 Zrotation Yrotation Xrotation
    JOINT SpineMid
    {
      OFFSET 0 0 12.899191
      CHANNELS 3 Zrotation Yrotation Xrotation
      JOINT Chest
      {
        OFFSET 0 0 12.899191
        CHANNELS 3 Zrotation Yrotation Xrotation
        JOINT LeftShoulder
        {
          OFFSET 7.550562 1.41573 9.438202
          CHANNELS 3 Zrotation Yrotation Xrotation
          JOINT LeftArm
          {
            OFFSET 9.155056 0 4.247191
            CHANNELS 3 Zrotation Yrotation Xrotation
            JOINT LeftForearm
            {
              OFFSET 0 0 25.771955
              CHANNELS 3 Zrotation Yrotation Xrotation
              JOINT LeftHand
              {
                OFFSET 0 0 25.197169
                CHANNELS 3 Zrotation Yrotation Xrotation
              }
            }
          }
        }
        JOINT RightShoulder
        {
          OFFSET -7.550562 1.41573 9.438202
          CHANNELS 3 Zrotation Yrotation Xrotation
          JOINT RightArm
          {
            OFFSET -9.155056 0 4.247191
            CHANNELS 3 Zrotation Yrotation Xrotation
            JOINT RightForearm
            {
              OFFSET 0 0 -25.771955
              CHANNELS 3 Zrotation Yrotation Xrotation
              JOINT RightHand
              {
                OFFSET 0 0 -25.197169
                CHANNELS 3 Zrotation Yrotation Xrotation
              }
            }
          }
        }
        JOINT Neck
        {
          OFFSET 0 0 15.101124
          CHANNELS 3 Zrotation Yrotation Xrotation
          JOINT Head
          {
            OFFSET 0 0 11.325843
            CHANNELS 3 Zrotation Yrotation Xrotation
            End Site
            {
              OFFSET 0 0 14.157303
            }
          }
        }
      }
    }
  }
}
MOTION
Frames: 14
Frame Time: 0.0
0.0  101.685394  0.0  0.768754  0.674149  -117.791298  21.290476  -20.179646  6.330379  -24.099516  18.66399  21.407644  -4.522892  1.302535  -0.07816  3.337477  -10.268568  -88.003998  34.191772  11.951786  120.008673  20.772373  -5.428885  6.574706  -4.147722  1.310401  3.446065  -11.137527  4.151186  9.174035  -11.137526  4.151186  9.174035  3.184661  20.066126  22.322777  160.617684  78.746729  -152.463251  -46.763905  -44.501521  77.07518  74.628236  15.929854  -9.294361  41.18522  -3.555505  27.147887  104.001241  72.848083  47.309216  -46.282039  23.432863  -81.243607  90.916883  -36.457341  20.372062  4.943393  -2.454537  0.058023  3.707211  -1.840576  0.063381  
0.0  101.685394  0.0  0.577455  1.01738  -118.318294  20.599466  -20.078106  6.8911  -24.603547  18.63444  21.730953  -4.295763  1.560091  -0.188475  2.659356  -10.641144  -91.792805  35.136199  10.448565  118.620947  20.217102  -8.486914  6.979607  -4.304346  1.167757  3.264561  -11.594555  3.753316  8.691756  -11.594555  3.753317  8.691757  4.595046  23.484087  25.586155  158.066591  74.217746  -154.093737  -48.087977  -44.142172  81.351554  75.761384  16.51697  -6.582575  38.032266  -3.699413  32.044955  100.915298  70.479273  41.060818  -45.793119  25.753644  -83.104789  88.857032  -36.007866  22.888586  4.841614  -1.858132  0.57408  3.632642  -1.389156  0.445281  
0.0  101.685394  0.0  0.323944  1.556358  -118.662112  19.832394  -19.843967  7.25962  -25.302237  18.718102  21.973158  -4.114943  1.815251  -0.275494  1.833283  -10.927798  -95.8251  35.697885  8.82258  117.2221  19.407034  -11.522331  7.416394  -4.331398  1.150474  3.232923  -11.672438  3.704297  8.606684  -11.672438  3.704297  8.606684  4.594694  25.477025  28.130642  158.707765  70.229054  -153.107548  -47.853096  -42.182908  83.925219  75.527935  16.288183  -4.801231  35.227511  -4.440412  35.371516  98.131981  67.593846  36.545996  -44.46684  27.936674  -84.01904  85.256951  -35.065658  25.967255  4.356948  -1.832788  0.28811  3.268297  -1.372621  0.229149  
0.0  101.685394  0.0  0.063292  2.111668  -118.793998  19.351997  -19.556087  7.317418  -25.938876  18.87431  22.371946  -3.89102  1.97271  -0.257593  1.190667  -11.269724  -100.055415  36.159566  7.313706  115.730611  18.654367  -14.647884  7.952291  -4.237811  1.198835  3.412168  -11.399743  3.854361  9.093414  -11.399744  3.854361  9.093414  3.020702  26.988292  29.189274  160.647936  67.082223  -151.466598  -46.549535  -38.826174  85.421769  75.217286  15.861729  -2.622652  31.744808  -5.083969  36.766294  96.825428  64.007342  33.550013  -42.178893  29.603526  -83.997749  81.206741  -33.79709  29.410067  3.580248  -2.192215  -0.980798  2.681347  -1.649978  -0.722689  
0.0  101.685394  0.0  -0.253437  2.691328  -118.872756  19.045739  -19.41822  7.126054  -26.404572  19.150943  23.023425  -4.087932  2.05136  -0.354873  0.891273  -11.805946  -104.072999  36.715186  6.099833  113.869002  18.030479  -17.943456  8.705087  -4.524156  1.231508  3.761834  -12.154193  4.04506  10.022483  -12.154194  4.04506  10.022483  3.116223  28.596252  28.565593  160.992752  63.214227  -150.809543  -44.919485  -35.751817  86.824715  75.473644  16.269516  -0.461226  28.46543  -4.267267  35.977335  99.140626  58.644389  32.321241  -43.136817  31.576817  -84.316383  82.981867  -28.679431  20.742649  4.188765  -2.254927  -3.033802  3.130062  -1.712131  -2.259722  
0.0  101.685394  0.0  -0.604034  3.085676  -118.967133  18.896286  -19.468727  6.745848  -26.729626  19.534831  23.890832  -4.264242  2.234873  -0.439001  0.439666  -17.699555  -113.216191  41.886947  -0.504787  114.752772  17.31386  -20.965796  9.45381  -5.295419  1.331782  4.194625  -14.213593  4.52263  11.127043  -14.213592  4.52263  11.127044  6.206372  30.356078  26.870361  160.029171  59.716201  -151.118974  -42.931146  -32.937215  87.669339  70.413096  15.080254  -7.527558  30.645425  -3.610343  34.848344  97.004912  54.619402  27.519777  -42.822687  27.396462  -85.674493  85.63804  -28.586131  30.190299  6.696768  -2.130966  -5.386482  5.003672  -1.657632  -4.01661  
0.0  101.685394  0.0  -0.865032  3.038799  -118.755884  19.389728  -19.256588  5.914322  -27.336774  19.788459  24.803526  -4.085908  2.459032  -0.417633  -2.122184  -12.551506  -115.502929  35.964478  -1.015697  112.301128  18.079814  -24.029105  9.662813  -5.930378  1.431775  4.542098  -15.902703  4.979315  11.999817  -15.902703  4.979315  11.999818  8.44903  31.782887  25.020099  161.443647  56.648799  -149.396564  -44.53807  -26.442824  94.129816  67.434784  15.697569  -8.922189  31.937767  -3.032373  34.718411  85.452551  54.010288  14.792615  -41.770482  31.16052  -88.722552  81.442462  -29.791694  38.33465  8.922947  -2.036159  -7.364564  6.668117  -1.635341  -5.494497  
0.0  101.685394  0.0  -1.215234  2.749064  -118.422069  19.90267  -19.532465  4.841823  -27.982482  20.456174  25.51603  -3.821949  2.621016  -0.303942  -1.702254  -24.934074  -117.448463  47.797742  -5.267059  107.061803  18.675199  -27.444509  8.53316  -6.32128  1.383574  4.632517  -16.969242  4.940569  12.223084  -16.969243  4.940569  12.223084  10.308088  33.58434  25.324945  163.025807  54.014292  -147.318718  -43.153358  -26.763141  96.281897  72.804419  16.06548  -10.207608  32.095655  -2.540513  35.810166  69.935788  53.384233  2.859386  -36.733943  31.094816  -95.799442  80.339815  -25.435573  45.831933  10.178875  -1.648262  -8.079907  7.613424  -1.371524  -6.034045  
0.0  101.685394  0.0  -1.668876  2.508257  -118.644947  19.913596  -20.042903  4.250153  -28.510579  21.232296  26.210839  -3.433571  2.748391  -0.194197  2.096223  -24.32356  -115.351666  46.686726  -2.418255  104.737048  15.170507  -29.037036  8.622698  -6.347091  1.195473  4.491677  -17.081095  4.401025  11.883509  -17.081094  4.401025  11.88351  10.572563  34.896413  27.15366  168.004434  52.364579  -145.387147  -40.873578  -27.862048  98.499196  72.887727  16.454  -5.596999  29.957007  -2.04856  38.236444  60.755101  51.446142  -2.802691  -31.520183  32.619388  -99.206276  83.773534  -22.609528  51.761183  9.832035  -1.008023  -7.26653  7.363091  -0.873355  -5.43521  
0.0  101.685394  0.0  -1.848296  1.953856  -119.721946  19.78519  -20.848736  4.722506  -29.200179  22.101433  26.589801  -2.762895  2.789862  -0.064984  3.367569  -25.235953  -113.216312  45.686739  -1.133365  101.552789  13.282049  -29.42728  9.587971  -6.401542  1.058025  4.115321  -17.278127  3.942224  10.890904  -17.278128  3.942224  10.890904  12.684435  35.826342  31.263672  171.165885  50.412971  -144.28771  -39.234092  -29.75758  100.677293  70.400825  13.790009  -7.458016  28.483565  -1.174244  41.84478  54.465813  48.366841  -6.465403  -32.293507  34.253708  -106.76487  90.820925  -24.565841  52.808371  9.719897  -0.112759  -4.892248  7.289574  -0.162452  -3.668493  
0.0  101.685394  0.0  -1.803005  1.179666  -119.922745  19.808809  -20.984234  4.597641  -29.393763  22.574727  27.056847  -2.088071  2.824666  0.031337  2.499157  -24.417708  -114.074283  42.492449  -2.664098  100.392434  12.917045  -29.694876  10.146288  -6.582033  1.03737  3.567401  -17.810643  3.769839  9.396238  -17.810645  3.769839  9.396238  16.045753  35.613997  34.993686  169.064897  49.97219  -148.132765  -40.764187  -30.430385  102.99815  71.796642  12.603495  -9.48009  28.815687  -1.036733  44.641606  53.640005  48.116684  -6.565661  -34.44677  35.295864  -110.184108  94.463948  -25.000109  52.774574  10.296142  0.347199  -2.089868  7.723377  0.225264  -1.573776  
0.0  101.685394  0.0  -1.416451  0.240482  -118.795192  19.960902  -20.209092  3.326316  -28.410261  22.588667  28.008531  -1.929433  2.934085  0.028396  2.210596  -22.485841  -115.504375  39.207096  -3.898322  100.522223  13.201839  -30.13294  9.74788  -6.820577  0.92834  2.997107  -18.509611  3.35028  7.863041  -18.509612  3.35028  7.86304  18.983461  35.390523  36.68014  162.967463  49.723246  -154.692906  -44.927358  -32.399073  104.948605  71.746276  10.146747  -11.572347  30.055201  -0.378968  45.885989  58.519928  49.562014  -2.790387  -38.018551  35.822325  -110.558004  93.503966  -23.675553  52.89334  11.136341  0.896698  0.121124  8.351908  0.674997  0.074526  
0.0  101.685394  0.0  -0.679399  -0.665593  -117.898977  19.780543  -19.060193  2.392386  -26.935802  22.439468  29.112101  -1.602046  3.12794  0.17971  3.270649  -23.573773  -116.121847  40.176376  -4.244681  100.583887  14.074624  -30.444519  9.642916  -6.871619  0.963092  2.774155  -18.658666  3.387927  7.24606  -18.658666  3.387927  7.24606  19.456326  34.426579  35.54182  157.009273  49.977189  -161.142762  -48.882059  -33.1062  106.034865  71.335686  9.185286  -13.228128  30.500356  0.026104  45.115447  67.300479  51.845549  4.210956  -41.251206  32.840277  -109.626539  92.769413  -23.460772  52.48418  11.385604  0.920194  1.150559  8.537324  0.71188  0.846102  
0.0  101.685394  0.0  -0.172362  -1.690628  -117.446119  19.497118  -18.240021  1.74653  -25.573873  22.233929  30.098567  -1.619576  3.247961  0.239827  5.366141  -24.708784  -115.485796  41.498376  -2.753725  100.943223  14.955765  -30.175282  10.265353  -6.523373  1.076898  2.800499  -17.695134  3.666135  7.308484  -17.695133  3.666134  7.308483  17.209343  32.817624  33.679061  153.723084  50.599461  -164.989375  -50.890624  -32.630019  106.578942  70.113604  8.995389  -14.651592  28.823255  -0.354711  43.260847  75.990882  53.320304  11.410436  -43.613322  30.127422  -108.680377  91.84588  -24.662703  51.413795  10.310379  0.345215  1.592231  7.731924  0.285876  1.188746  
